<svg xmlns="http://www.w3.org/2000/svg" viewBox="0 0 100 100" fill="none">
  <rect width="100" height="100" rx="8" fill="#10b981"/>
  <path d="M50 15c-16.569 0-30 13.431-30 30s13.431 30 30 30 30-13.431 30-30-13.431-30-30-30zm0 8c12.131 0 22 9.869 22 22s-9.869 22-22 22-22-9.869-22-22 9.869-22 22-22z" fill="#ffffff"/>
  <path d="M45 35h10v2h-10v-2zm0 4h10v2h-10v-2zm0 4h10v2h-10v-2zm0 4h10v2h-10v-2z" fill="#10b981"/>
  <path d="M35 45h30v10H35V45zm2 2v6h26v-6H37z" fill="#ffffff"/>
  <circle cx="50" cy="50" r="8" fill="#10b981"/>
  <text x="50" y="55" text-anchor="middle" font-family="Arial, sans-serif" font-size="12" font-weight="bold" fill="#ffffff">$</text>
</svg>